# xmcd
# 
# Track frame offsets:
#     150
#     11036
#     27703
#     59560
#     84142
#     100518
#     111712
#     131639
#     148418
#     160650
#     179971
#     204770
#     222601
# 
# Disc length: 3181
# 
# Revision: 1
# Processed by: cddbd v1.5.2PL0 Copyright (c) Steve Scherf et al.
# Submitted via: fre:ac v1.0.31
# 
DISCID=c70c6b0d
DTITLE=Old Crow Medicine Show - Tennessee Pusher
DYEAR=2008
DGENRE=Rock/Pop
TTITLE0=Alabama High-Test
TTITLE1=Highway Halo
TTITLE2=The Greatest Hustler of All
TTITLE3=Methamphetamine
TTITLE4=Next Go 'Round
TTITLE5=Humdinger
TTITLE6=Motel in Memphis
TTITLE7=Evening Sun
TTITLE8=Mary's Kitchen
TTITLE9=Crazy Eyes
TTITLE10=Tennessee Pusher
TTITLE11=Lift Him Up
TTITLE12=Caroline
EXTD=
EXTT0=
EXTT1=
EXTT2=
EXTT3=
EXTT4=
EXTT5=
EXTT6=
EXTT7=
EXTT8=
EXTT9=
EXTT10=
EXTT11=
EXTT12=
PLAYORDER=
